# xmcd
#
# Track frame offsets:
# 150
# 21862
# 46885
# 61967
# 75042
# 96270
# 112437
# 129342
# 148097
# 165147
# 179552
# 193467
#
# Disc length: 3133 seconds
#
# Revision: 0
# Processed by: cddbd v1.5.1PL0 Copyright (c) Steve Scherf et al.
# Submitted via: Audion 3.0.2 (http://www.panic.com/audion/)
#
DISCID=a20c3b0c
DTITLE=The silos - Nuestra vida
DYEAR=1900
DGENRE=
TTITLE0=All spring all summer
TTITLE1=Tenesse fire
TTITLE2=Porque no
TTITLE3=Shaking all over the place
TTITLE4=All falls away
TTITLE5=Shine it down
TTITLE6=Ride
TTITLE7=Cuba
TTITLE8=Front Porch
TTITLE9=My big car
TTITLE10=Nothing's gonna last
TTITLE11=Start the clock
EXTD=
EXTT0=
EXTT1=
EXTT2=
EXTT3=
EXTT4=
EXTT5=
EXTT6=
EXTT7=
EXTT8=
EXTT9=
EXTT10=
EXTT11=
PLAYORDER=
